<?xml version="1.0" encoding="UTF-8"?>
<svg version="1.1" xmlns="http://www.w3.org/2000/svg" width="512" height="512">
<path d="M0 0 C4.455 0.0309375 4.455 0.0309375 9 0.0625 C9 11.9425 9 23.8225 9 36.0625 C12.96 36.0625 16.92 36.0625 21 36.0625 C55.2028988 37.81453673 88.6046106 45.30583213 120 59.0625 C120.79744629 59.41038574 121.59489258 59.75827148 122.41650391 60.11669922 C146.3920029 70.70624143 168.76737225 85.21056658 187.51025391 103.60351562 C189.01728075 105.07942392 190.54418369 106.53236833 192.07421875 107.984375 C203.5007479 118.95937782 212.98398221 131.39703547 221 145.0625 C221.433125 145.79758789 221.86625 146.53267578 222.3125 147.29003906 C238.17031266 174.66954373 245.98672871 204.48718129 245 236.0625 C233.12 236.0625 221.24 236.0625 209 236.0625 C209 240.3525 209 244.6425 209 249.0625 C205.32935396 316.96945174 178.39455384 381.63076479 128 428.0625 C119.33386823 435.63187047 109.91920463 442.24399888 100 448.0625 C99.26491211 448.495625 98.52982422 448.92875 97.77246094 449.375 C69.97666491 465.47392259 40.00574168 473.00384534 8 472.0625 C8 460.1825 8 448.3025 8 436.0625 C4.37 436.0625 0.74 436.0625 -3 436.0625 C-63.68364415 432.63862698 -125.46027169 411.74904635 -169.51025391 368.52148438 C-171.01728075 367.04557608 -172.54418369 365.59263167 -174.07421875 364.140625 C-185.5007479 353.16562218 -194.98398221 340.72796453 -203 327.0625 C-203.433125 326.32741211 -203.86625 325.59232422 -204.3125 324.83496094 C-220.17031266 297.45545627 -227.98672871 267.63781871 -227 236.0625 C-215.12 236.0625 -203.24 236.0625 -191 236.0625 C-191 231.7725 -191 227.4825 -191 223.0625 C-187.32419996 155.06019932 -160.35485264 90.5400787 -110 44.0625 C-80.32548677 17.95268067 -39.93938172 -0.39561274 0 0 Z M-52 167.0625 C-52.68320313 167.65289062 -53.36640625 168.24328125 -54.0703125 168.8515625 C-70.3100702 183.81761371 -78.48480852 206.60753927 -79.3828125 228.25 C-79.70795526 242.24439159 -79.4177682 255.69824687 -75 269.0625 C-74.67854004 270.0522583 -74.67854004 270.0522583 -74.35058594 271.06201172 C-67.27142812 292.12946173 -53.03931695 308.12187894 -33.4375 318.3125 C-22.05192459 323.96238072 -8.75201226 327.77658044 4 328.0625 C5.22332031 328.11277344 6.44664062 328.16304687 7.70703125 328.21484375 C35.7098528 329.03719339 58.67070201 320.76585614 79.30419922 301.70800781 C83.95013163 297.19986148 88.13945353 292.25514154 92 287.0625 C92.43269196 286.53295715 92.86538391 286.00341431 93.31118774 285.45782471 C97.85667896 279.27044375 97.65172669 273.49568744 97.48828125 266.03125 C97.48324585 264.93844727 97.47821045 263.84564453 97.47302246 262.71972656 C97.44701131 258.66704794 97.37720492 254.61474553 97.3125 250.5625 C97.209375 241.4875 97.10625 232.4125 97 223.0625 C66.64 223.0625 36.28 223.0625 5 223.0625 C5 235.9325 5 248.8025 5 262.0625 C19.85 262.0625 34.7 262.0625 50 262.0625 C44.13688512 270.85717232 36.9035652 275.16880052 26.65234375 277.625 C13.29906612 279.8276025 0.3446232 277.42338991 -11 270.0625 C-19.10794312 262.65183999 -21.59276241 251.0951799 -22.203125 240.5546875 C-22.3663666 227.95787734 -21.09666435 216.19710028 -13 206.0625 C-6.03669469 198.99437074 2.24860136 196.95325777 11.9375 196.625 C19.64339721 196.80967292 27.42571795 198.16437885 33.125 203.75 C33.74375 204.513125 34.3625 205.27625 35 206.0625 C36.04310705 207.32900985 36.04310705 207.32900985 38.36012268 207.18275452 C39.92898476 207.1794236 39.92898476 207.1794236 41.52954102 207.17602539 C42.71068985 207.17594986 43.89183868 207.17587433 45.10877991 207.17579651 C47.03686745 207.16805458 47.03686745 207.16805458 49.00390625 207.16015625 C50.31205795 207.1587413 51.62020966 207.15732635 52.96800232 207.15586853 C56.45162859 207.1520441 59.93521339 207.14221446 63.41882324 207.13116455 C66.97126708 207.12094882 70.52371759 207.11637056 74.07617188 207.11132812 C81.05079832 207.10059212 88.02539717 207.0835166 95 207.0625 C94.85755915 205.63234761 94.71039961 204.20266473 94.5612793 202.77319336 C94.47984177 201.97699081 94.39840424 201.18078827 94.3144989 200.36045837 C92.27120454 185.43065937 81.82400505 171.50775426 70.625 162.05859375 C35.38004429 136.14659506 -19.29843363 137.6194527 -52 167.0625 Z " fill="#FF2F6C" transform="translate(247,19.9375)"/>
</svg>
